<svg version="1.0" xmlns="http://www.w3.org/2000/svg"
 width="505.5462184873949px" style="transform:scale(1.001,1);" height="376px" viewBox="0 0 320.000000 238.000000"
 preserveAspectRatio="xMidYMid meet">
<g transform="translate(0.000000,238.000000) scale(0.100000,-0.100000)"
fill="#000000" stroke="none">
<path d="M0 1195 l0 -1185 526 0 527 0 -6 38 c-3 20 -11 84 -17 142 -8 68 -20 122 -35
155 -12 28 -34 75 -48 105 -41 89 -67 188 -67 254 -1 33 -5 81 -11 106 -37
176 -48 311 -28 371 12 35 72 117 98 133 8 5 34 28 58 51 58 57 58 100 -3 165
-20 22 -24 37 -26 116 -2 97 9 131 52 154 11 6 18 15 15 21 -4 5 2 9 12 9 10
0 29 7 42 17 22 15 28 15 75 0 28 -9 62 -18 76 -19 18 -2 28 -12 36 -36 6 -19
16 -37 22 -41 26 -16 45 -86 43 -156 -2 -64 1 -75 27 -110 22 -31 40 -43 78
-54 27 -7 59 -20 72 -28 12 -8 39 -16 60 -18 20 -3 51 -7 67 -10 17 -3 59 -8
95 -11 36 -3 79 -12 97 -20 39 -18 48 -18 78 2 13 9 44 22 67 29 41 12 43 14
55 66 7 30 17 108 23 174 l11 120 -30 68 c-17 38 -31 80 -31 94 0 30 -20 103
-32 119 -4 6 -5 38 -2 71 4 40 1 83 -10 133 -15 63 -15 75 -3 87 22 22 92 28
119 11 13 -8 43 -20 68 -28 25 -7 49 -17 54 -22 6 -4 17 -8 25 -8 9 0 63 -24
121 -54 102 -52 140 -83 112 -93 -18 -7 -62 -109 -62 -144 0 -24 7 -32 43 -48
23 -11 71 -46 107 -78 36 -32 82 -66 102 -77 78 -40 81 -47 76 -208 -4 -101
-11 -160 -25 -203 -14 -45 -16 -69 -10 -95 8 -28 5 -45 -11 -80 -38 -86 -46
-150 -34 -268 25 -230 14 -545 -21 -599 -5 -8 -4 -13 2 -13 7 0 11 -23 11 -56
0 -31 5 -97 12 -145 l12 -89 268 0 268 0 0 1185 0 1185 -1600 0 -1600 0 0
-1185z"/>
<path d="M1588 1100 c9 -22 22 -40 28 -40 20 0 51 -35 56 -62 4 -20 1 -28 -8 -28 -19 0
-18 -35 1 -64 8 -13 14 -34 13 -47 -3 -21 1 -24 26 -22 29 2 49 20 40 35 -3 5
1 15 9 23 13 13 16 13 21 -1 3 -9 6 -131 6 -272 0 -288 -3 -297 -69 -304 l-34
-4 -1 -152 -1 -152 87 0 88 0 0 88 c0 96 22 274 45 362 8 30 28 107 44 170 17
63 31 129 31 146 0 17 13 51 31 77 25 38 30 55 28 94 -1 26 1 59 5 72 10 31
-6 41 -65 41 -29 0 -51 6 -59 15 -7 9 -15 13 -18 11 -2 -3 -12 3 -21 14 -19
22 -70 27 -157 16 -47 -6 -70 -4 -99 8 -20 9 -39 16 -40 16 -2 0 4 -18 13 -40z"/>
<path d="M2208 110 c-16 -32 -28 -68 -28 -79 0 -19 6 -21 60 -21 53 0 60 2 60 19 0 23
-50 141 -59 141 -3 -1 -18 -27 -33 -60z"/>
</g>
</svg>
